<svg width="600" height="600" viewBox="0 0 600 600" fill="none" xmlns="http://www.w3.org/2000/svg">
<rect x="8" y="8" width="584" height="584" rx="42" fill="black"/>
<rect x="8" y="8" width="584" height="584" rx="42" stroke="white" stroke-width="16"/>
<path fill-rule="evenodd" clip-rule="evenodd" d="M318 148H478C489.046 148 498 156.954 498 168V307.412C498 318.457 489.046 327.412 478 327.412H417V327.412C412.233 327.412 407.649 329.301 404.272 332.667V332.667L379.398 357.459C375.649 361.196 370.572 363.294 365.279 363.294H234.721C229.428 363.294 224.351 361.196 220.602 357.459L195.728 332.667V332.667C192.352 329.301 187.767 327.412 183 327.412V327.412H122C110.954 327.412 102 318.457 102 307.412V168C102 156.954 110.954 148 122 148H282H318ZM122 363.294C110.954 363.294 102 372.248 102 383.294V433C102 444.046 110.954 453 122 453H478C489.046 453 498 444.046 498 433V383.294C498 372.248 489.046 363.294 478 363.294H432.721C427.428 363.294 422.351 365.392 418.602 369.129L393.728 393.922V393.922C390.351 397.287 385.767 399.176 381 399.176V399.176H219V399.176C214.233 399.176 209.648 397.287 206.272 393.922V393.922L181.398 369.129C177.649 365.392 172.572 363.294 167.279 363.294H122ZM219 273.588C209.059 273.588 201 265.529 201 255.588V246.676V237.765C201 227.824 209.059 219.765 219 219.765V219.765V219.765C228.941 219.765 237 227.824 237 237.765V246.676V255.588C237 265.529 228.941 273.588 219 273.588V273.588ZM381 219.765C371.059 219.765 363 227.824 363 237.765V255.588C363 265.529 371.059 273.588 381 273.588V273.588C390.941 273.588 399 265.529 399 255.588V237.765C399 227.824 390.941 219.765 381 219.765V219.765Z" fill="white"/>
</svg>
